<svg xmlns="http://www.w3.org/2000/svg" viewBox="0 0 900 560" role="img" aria-labelledby="title desc">
  <title id="title">炭烤安格斯牛排</title>
  <desc id="desc">Charcoal grilled steak with butter, carrots, herbs, and sea salt.</desc>
  <defs>
    <radialGradient id="bg" cx="70%" cy="14%" r="82%">
      <stop offset="0" stop-color="#f2c468"/>
      <stop offset=".55" stop-color="#7e3e2d"/>
      <stop offset="1" stop-color="#1d1715"/>
    </radialGradient>
    <filter id="shadow" x="-20%" y="-20%" width="140%" height="140%">
      <feDropShadow dx="0" dy="24" stdDeviation="18" flood-color="#130d0c" flood-opacity=".42"/>
    </filter>
  </defs>
  <rect width="900" height="560" fill="url(#bg)"/>
  <g filter="url(#shadow)">
    <ellipse cx="450" cy="350" rx="312" ry="156" fill="#f7efe0"/>
    <ellipse cx="450" cy="350" rx="246" ry="112" fill="#dfd0bc"/>
    <path d="M285 334 C318 236 470 212 598 260 C680 291 714 352 666 410 C610 476 438 476 334 424 C284 398 266 374 285 334Z" fill="#5a211c"/>
    <path d="M330 330 C358 260 468 246 568 282 C630 304 650 346 612 384 C566 430 436 426 360 390 C324 372 314 354 330 330Z" fill="#a74731"/>
    <path d="M372 318 C430 292 528 306 592 358" fill="none" stroke="#261515" stroke-width="18" stroke-linecap="round" opacity=".58"/>
    <path d="M350 362 C426 392 540 398 624 350" fill="none" stroke="#f1ad58" stroke-width="10" stroke-linecap="round" opacity=".55"/>
    <rect x="480" y="238" width="54" height="44" rx="10" fill="#f4d06d" transform="rotate(16 480 238)"/>
    <g fill="#dd8b36">
      <path d="M242 402 C304 382 352 394 386 436 C318 450 274 438 242 402Z"/>
      <path d="M590 430 C648 396 702 404 746 444 C678 470 632 462 590 430Z"/>
    </g>
    <g fill="#2e6b5d">
      <ellipse cx="650" cy="275" rx="44" ry="14" transform="rotate(-22 650 275)"/>
      <ellipse cx="280" cy="284" rx="38" ry="13" transform="rotate(24 280 284)"/>
    </g>
  </g>
</svg>
