<svg xmlns="http://www.w3.org/2000/svg" viewBox="0 0 900 560" role="img" aria-labelledby="title desc">
  <title id="title">砂锅菌菇鸡汤</title>
  <desc id="desc">A warm clay pot soup with chicken, mushrooms, ginger, and herbs.</desc>
  <defs>
    <radialGradient id="bg" cx="50%" cy="28%" r="80%">
      <stop offset="0" stop-color="#f8d995"/>
      <stop offset="1" stop-color="#2e3f35"/>
    </radialGradient>
    <filter id="shadow" x="-20%" y="-20%" width="140%" height="140%">
      <feDropShadow dx="0" dy="24" stdDeviation="18" flood-color="#121915" flood-opacity=".36"/>
    </filter>
  </defs>
  <rect width="900" height="560" fill="url(#bg)"/>
  <g opacity=".42" stroke="#fff4cd" stroke-width="10" stroke-linecap="round">
    <path d="M360 160 C320 110 390 92 350 45"/>
    <path d="M460 150 C420 102 500 84 468 34"/>
    <path d="M550 160 C518 110 590 98 562 50"/>
  </g>
  <g filter="url(#shadow)">
    <ellipse cx="450" cy="404" rx="286" ry="86" fill="#211714" opacity=".28"/>
    <path d="M205 268 H695 L648 438 C636 484 592 504 450 504 C308 504 264 484 252 438 Z" fill="#6b382d"/>
    <ellipse cx="450" cy="270" rx="246" ry="92" fill="#8c4a36"/>
    <ellipse cx="450" cy="258" rx="206" ry="68" fill="#e1ad63"/>
    <g fill="#f5d492">
      <circle cx="354" cy="250" r="28"/>
      <circle cx="496" cy="286" r="34"/>
      <circle cx="560" cy="240" r="25"/>
    </g>
    <g fill="#7b5b3c">
      <ellipse cx="414" cy="230" rx="36" ry="20" transform="rotate(-20 414 230)"/>
      <ellipse cx="612" cy="282" rx="36" ry="18" transform="rotate(22 612 282)"/>
    </g>
    <g fill="#2e6b5d">
      <ellipse cx="332" cy="310" rx="40" ry="14" transform="rotate(20 332 310)"/>
      <ellipse cx="520" cy="218" rx="38" ry="14" transform="rotate(-16 520 218)"/>
    </g>
    <path d="M190 300 C132 292 132 388 224 370" fill="none" stroke="#6b382d" stroke-width="34" stroke-linecap="round"/>
    <path d="M710 300 C768 292 768 388 676 370" fill="none" stroke="#6b382d" stroke-width="34" stroke-linecap="round"/>
  </g>
</svg>
